<?xml version="1.0" encoding="UTF-8" standalone="no"?>
<!-- Created with Inkscape (http://www.inkscape.org/) -->

<svg
   width="122.60033mm"
   height="58.250153mm"
   viewBox="0 0 463.37132 220.15807"
   version="1.1"
   id="svg1"
   sodipodi:docname="quark-workmark.svg"
   inkscape:version="1.4.3 (0d15f75042, 2025-12-25)"
   xmlns:inkscape="http://www.inkscape.org/namespaces/inkscape"
   xmlns:sodipodi="http://sodipodi.sourceforge.net/DTD/sodipodi-0.dtd"
   xmlns="http://www.w3.org/2000/svg"
   xmlns:svg="http://www.w3.org/2000/svg">
  <sodipodi:namedview
     id="namedview1"
     pagecolor="#ffffff"
     bordercolor="#999999"
     borderopacity="1"
     inkscape:showpageshadow="2"
     inkscape:pageopacity="0"
     inkscape:pagecheckerboard="0"
     inkscape:deskcolor="#d1d1d1"
     inkscape:document-units="mm"
     inkscape:zoom="2.4359771"
     inkscape:cx="228.45042"
     inkscape:cy="107.75963"
     inkscape:window-width="1900"
     inkscape:window-height="1142"
     inkscape:window-x="0"
     inkscape:window-y="0"
     inkscape:window-maximized="1"
     inkscape:current-layer="g71-6-8" />
  <defs
     id="defs1">
    <filter
       style="color-interpolation-filters:sRGB"
       id="filter67-2-6"
       x="-0.06805319"
       y="-0.29758258"
       width="1.2008155"
       height="1.7485283">
      <feFlood
         result="flood"
         in="SourceGraphic"
         flood-opacity="0.156863"
         flood-color="rgb(0,0,0)"
         id="feFlood66-6-4" />
      <feGaussianBlur
         result="blur"
         in="SourceGraphic"
         stdDeviation="12.023321"
         id="feGaussianBlur66-6-3" />
      <feOffset
         result="offset"
         in="blur"
         dx="27.438023"
         dy="14.871306"
         id="feOffset66-49-0" />
      <feComposite
         result="comp1"
         operator="in"
         in="flood"
         in2="offset"
         id="feComposite66-5-3" />
      <feComposite
         result="fbSourceGraphic"
         operator="over"
         in="SourceGraphic"
         in2="comp1"
         id="feComposite67-04-0" />
      <feColorMatrix
         result="fbSourceGraphicAlpha"
         in="fbSourceGraphic"
         values="0 0 0 -1 0 0 0 0 -1 0 0 0 0 -1 0 0 0 0 1 0"
         id="feColorMatrix67-8-9" />
      <feFlood
         id="feFlood67-7-2"
         result="flood"
         in="fbSourceGraphic"
         flood-opacity="0.156863"
         flood-color="rgb(0,0,0)" />
      <feGaussianBlur
         id="feGaussianBlur67-1-54"
         result="blur"
         in="fbSourceGraphic"
         stdDeviation="12.023321" />
      <feOffset
         id="feOffset67-72-0"
         result="offset"
         in="blur"
         dx="27.438023"
         dy="14.871306" />
      <feComposite
         id="feComposite68-7-5"
         result="comp1"
         operator="in"
         in="flood"
         in2="offset" />
      <feComposite
         id="feComposite69-2-9"
         result="comp2"
         operator="over"
         in="fbSourceGraphic"
         in2="comp1" />
    </filter>
  </defs>
  <g
     id="layer1"
     transform="translate(-50.139746,-306.77436)">
    <g
       id="g71-6-8"
       transform="translate(15.292025,268.48219)">
      <path
         id="path1-1-0"
         style="fill:#6d5b8f;fill-opacity:1;stroke-width:0.784686"
         d="M 133.65912,38.292166 A 51.987199,110.07895 0 0 0 81.672141,148.37043 51.987199,110.07895 0 0 0 133.65912,258.45023 51.987199,110.07895 0 0 0 185.64611,148.37043 51.987199,110.07895 0 0 0 133.65912,38.292166 Z m 0,12.901335 a 39.384241,97.177637 0 0 1 39.3845,97.176929 39.384241,97.177637 0 0 1 -39.3845,97.17847 39.384241,97.177637 0 0 1 -39.384499,-97.17847 39.384241,97.177637 0 0 1 39.384499,-97.176929 z" />
      <path
         id="path2-0-2"
         style="fill:#6d5b8f;fill-opacity:1;stroke-width:0.784686"
         d="M 228.99037,93.331684 A 51.987199,110.07895 60 0 0 107.6663,103.34876 51.987199,110.07895 60 0 0 38.327879,203.41072 51.987199,110.07895 60 0 0 159.65328,193.39286 51.987199,110.07895 60 0 0 228.99037,93.331684 Z m -11.17289,6.45067 A 39.384241,97.177637 60 0 1 153.35204,182.47878 39.384241,97.177637 60 0 1 49.500764,196.96005 39.384241,97.177637 60 0 1 113.96754,114.26283 39.384241,97.177637 60 0 1 217.81748,99.782354 Z" />
      <path
         id="path3-6-1"
         style="fill:#6d5b8f;fill-opacity:1;stroke-width:0.784686"
         d="M 228.99037,203.41072 A 110.07895,51.987199 30 0 0 159.65329,103.34954 110.07895,51.987199 30 0 0 38.327879,93.331684 110.07895,51.987199 30 0 0 107.66629,193.39364 110.07895,51.987199 30 0 0 228.99037,203.41072 Z m -11.17289,-6.45067 A 97.177637,39.384241 30 0 1 113.96755,182.47956 97.177637,39.384241 30 0 1 49.500764,99.782354 97.177637,39.384241 30 0 1 153.35204,114.2636 a 97.177637,39.384241 30 0 1 64.46544,82.69645 z" />
      <text
         xml:space="preserve"
         style="font-style:normal;font-variant:normal;font-weight:normal;font-stretch:normal;font-size:214.531px;font-family:'Tilt Warp';-inkscape-font-specification:'Tilt Warp, Normal';font-variant-ligatures:normal;font-variant-caps:normal;font-variant-numeric:normal;font-variant-east-asian:normal;text-align:start;writing-mode:lr-tb;direction:ltr;text-anchor:start;fill:#6d5b8f;fill-opacity:1;stroke-width:1.60898;filter:url(#filter67-2-6)"
         x="248.12654"
         y="447.71991"
         id="text5-1-0"
         transform="matrix(0.39351513,0,0,0.39351513,6.6456866,0.94993362)"><tspan
           id="tspan5-5-5"
           x="248.12654"
           y="447.71991"
           style="fill:#f0f0ff;fill-opacity:1;stroke-width:1.60898">dxuglas.</tspan></text>
    </g>
  </g>
</svg>
